<mxfile host="app.diagrams.net" modified="2024-02-01T10:09:02.320Z" agent="Mozilla/5.0 (Windows NT 10.0; Win64; x64) AppleWebKit/537.36 (KHTML, like Gecko) Chrome/121.0.0.0 Safari/537.36" etag="fjVpht6A8nBEKoftDeDd" version="23.1.0" type="github">
  <diagram name="PÃ¡gina-1" id="zezswzHhv1L19rjYyzv-">
    <mxGraphModel dx="712" dy="1186" grid="0" gridSize="10" guides="1" tooltips="1" connect="1" arrows="1" fold="1" page="0" pageScale="1" pageWidth="827" pageHeight="1169" math="0" shadow="0">
      <root>
        <mxCell id="0" />
        <mxCell id="1" parent="0" />
        <mxCell id="OYtKPpapujSkmBP72CIY-1" value="Libro" style="swimlane;fontStyle=1;align=center;verticalAlign=top;childLayout=stackLayout;horizontal=1;startSize=26;horizontalStack=0;resizeParent=1;resizeParentMax=0;resizeLast=0;collapsible=1;marginBottom=0;whiteSpace=wrap;html=1;fontSize=16;" vertex="1" parent="1">
          <mxGeometry x="155" y="-46" width="237" height="346" as="geometry" />
        </mxCell>
        <mxCell id="OYtKPpapujSkmBP72CIY-2" value="- titulo: String" style="text;strokeColor=none;fillColor=none;align=left;verticalAlign=top;spacingLeft=4;spacingRight=4;overflow=hidden;rotatable=0;points=[[0,0.5],[1,0.5]];portConstraint=eastwest;whiteSpace=wrap;html=1;fontSize=16;" vertex="1" parent="OYtKPpapujSkmBP72CIY-1">
          <mxGeometry y="26" width="237" height="26" as="geometry" />
        </mxCell>
        <mxCell id="OYtKPpapujSkmBP72CIY-10" value="- autor: String" style="text;strokeColor=none;fillColor=none;align=left;verticalAlign=top;spacingLeft=4;spacingRight=4;overflow=hidden;rotatable=0;points=[[0,0.5],[1,0.5]];portConstraint=eastwest;whiteSpace=wrap;html=1;fontSize=16;" vertex="1" parent="OYtKPpapujSkmBP72CIY-1">
          <mxGeometry y="52" width="237" height="26" as="geometry" />
        </mxCell>
        <mxCell id="OYtKPpapujSkmBP72CIY-11" value="- editorial: String" style="text;strokeColor=none;fillColor=none;align=left;verticalAlign=top;spacingLeft=4;spacingRight=4;overflow=hidden;rotatable=0;points=[[0,0.5],[1,0.5]];portConstraint=eastwest;whiteSpace=wrap;html=1;fontSize=16;" vertex="1" parent="OYtKPpapujSkmBP72CIY-1">
          <mxGeometry y="78" width="237" height="26" as="geometry" />
        </mxCell>
        <mxCell id="OYtKPpapujSkmBP72CIY-12" value="- numEjemplares: int" style="text;strokeColor=none;fillColor=none;align=left;verticalAlign=top;spacingLeft=4;spacingRight=4;overflow=hidden;rotatable=0;points=[[0,0.5],[1,0.5]];portConstraint=eastwest;whiteSpace=wrap;html=1;fontSize=16;" vertex="1" parent="OYtKPpapujSkmBP72CIY-1">
          <mxGeometry y="104" width="237" height="26" as="geometry" />
        </mxCell>
        <mxCell id="OYtKPpapujSkmBP72CIY-13" value="- numPrestados: int" style="text;strokeColor=none;fillColor=none;align=left;verticalAlign=top;spacingLeft=4;spacingRight=4;overflow=hidden;rotatable=0;points=[[0,0.5],[1,0.5]];portConstraint=eastwest;whiteSpace=wrap;html=1;fontSize=16;" vertex="1" parent="OYtKPpapujSkmBP72CIY-1">
          <mxGeometry y="130" width="237" height="26" as="geometry" />
        </mxCell>
        <mxCell id="OYtKPpapujSkmBP72CIY-14" value="- prestado: boolean" style="text;strokeColor=none;fillColor=none;align=left;verticalAlign=top;spacingLeft=4;spacingRight=4;overflow=hidden;rotatable=0;points=[[0,0.5],[1,0.5]];portConstraint=eastwest;whiteSpace=wrap;html=1;fontSize=16;" vertex="1" parent="OYtKPpapujSkmBP72CIY-1">
          <mxGeometry y="156" width="237" height="26" as="geometry" />
        </mxCell>
        <mxCell id="OYtKPpapujSkmBP72CIY-3" value="" style="line;strokeWidth=1;fillColor=none;align=left;verticalAlign=middle;spacingTop=-1;spacingLeft=3;spacingRight=3;rotatable=0;labelPosition=right;points=[];portConstraint=eastwest;strokeColor=inherit;fontSize=16;" vertex="1" parent="OYtKPpapujSkmBP72CIY-1">
          <mxGeometry y="182" width="237" height="8" as="geometry" />
        </mxCell>
        <mxCell id="OYtKPpapujSkmBP72CIY-4" value="+ prestamo()" style="text;strokeColor=none;fillColor=none;align=left;verticalAlign=top;spacingLeft=4;spacingRight=4;overflow=hidden;rotatable=0;points=[[0,0.5],[1,0.5]];portConstraint=eastwest;whiteSpace=wrap;html=1;fontSize=16;" vertex="1" parent="OYtKPpapujSkmBP72CIY-1">
          <mxGeometry y="190" width="237" height="26" as="geometry" />
        </mxCell>
        <mxCell id="OYtKPpapujSkmBP72CIY-16" value="+ devolucion()" style="text;strokeColor=none;fillColor=none;align=left;verticalAlign=top;spacingLeft=4;spacingRight=4;overflow=hidden;rotatable=0;points=[[0,0.5],[1,0.5]];portConstraint=eastwest;whiteSpace=wrap;html=1;fontSize=16;" vertex="1" parent="OYtKPpapujSkmBP72CIY-1">
          <mxGeometry y="216" width="237" height="26" as="geometry" />
        </mxCell>
        <mxCell id="OYtKPpapujSkmBP72CIY-17" value="+ perdido()" style="text;strokeColor=none;fillColor=none;align=left;verticalAlign=top;spacingLeft=4;spacingRight=4;overflow=hidden;rotatable=0;points=[[0,0.5],[1,0.5]];portConstraint=eastwest;whiteSpace=wrap;html=1;fontSize=16;" vertex="1" parent="OYtKPpapujSkmBP72CIY-1">
          <mxGeometry y="242" width="237" height="26" as="geometry" />
        </mxCell>
        <mxCell id="OYtKPpapujSkmBP72CIY-19" value="+ setTitulo(titulo:String)" style="text;strokeColor=none;fillColor=none;align=left;verticalAlign=top;spacingLeft=4;spacingRight=4;overflow=hidden;rotatable=0;points=[[0,0.5],[1,0.5]];portConstraint=eastwest;whiteSpace=wrap;html=1;fontSize=16;" vertex="1" parent="OYtKPpapujSkmBP72CIY-1">
          <mxGeometry y="268" width="237" height="26" as="geometry" />
        </mxCell>
        <mxCell id="OYtKPpapujSkmBP72CIY-20" value="+ getTitulo():String" style="text;strokeColor=none;fillColor=none;align=left;verticalAlign=top;spacingLeft=4;spacingRight=4;overflow=hidden;rotatable=0;points=[[0,0.5],[1,0.5]];portConstraint=eastwest;whiteSpace=wrap;html=1;fontSize=16;" vertex="1" parent="OYtKPpapujSkmBP72CIY-1">
          <mxGeometry y="294" width="237" height="26" as="geometry" />
        </mxCell>
        <mxCell id="OYtKPpapujSkmBP72CIY-18" value="+ mostrarDatos(): String" style="text;strokeColor=none;fillColor=none;align=left;verticalAlign=top;spacingLeft=4;spacingRight=4;overflow=hidden;rotatable=0;points=[[0,0.5],[1,0.5]];portConstraint=eastwest;whiteSpace=wrap;html=1;fontSize=16;" vertex="1" parent="OYtKPpapujSkmBP72CIY-1">
          <mxGeometry y="320" width="237" height="26" as="geometry" />
        </mxCell>
      </root>
    </mxGraphModel>
  </diagram>
</mxfile>
